<svg version="1.1" id="Layer_1" xmlns="http://www.w3.org/2000/svg" xmlns:xlink="http://www.w3.org/1999/xlink" x="0px" y="0px"
	 width="100%" viewBox="0 0 593 627" enable-background="new 0 0 593 627" xml:space="preserve">
<path fill="#FFFFFF" opacity="1.000000" stroke="none" 
	d="
M1.000000,320.000000 
	C1.000000,213.762833 1.000000,107.525665 1.000000,1.000000 
	C55.687222,1.000000 110.374954,1.000000 165.297089,1.358513 
	C156.660629,2.472611 147.757980,2.966409 138.925476,4.038064 
	C120.311989,6.296447 102.737968,12.274954 86.056870,20.579567 
	C68.445854,29.347136 53.233364,41.292084 40.711372,56.688332 
	C21.237499,80.632156 11.707881,108.401672 9.197745,138.667664 
	C8.298717,149.507721 9.629659,160.536377 9.999561,171.477036 
	C10.442332,184.572952 13.477613,197.125656 17.970442,209.383072 
	C27.062168,234.187317 42.994690,253.669479 64.216042,269.062195 
	C85.253540,284.321564 108.982384,293.927460 133.442856,301.989349 
	C159.518646,310.583679 185.823502,318.585785 209.623993,332.831970 
	C215.930069,336.606567 216.998627,335.838928 216.999008,328.381439 
	C217.001099,288.383636 216.903427,248.385315 217.112762,208.388596 
	C217.141434,202.913971 215.104187,200.451263 210.089783,198.845367 
	C193.209106,193.439255 176.361038,187.903442 159.666504,181.951675 
	C142.725204,175.911911 128.417938,167.097870 125.409569,147.034225 
	C124.142471,138.583664 128.348785,123.776001 136.503098,118.578148 
	C145.816376,112.641502 155.992462,110.572990 166.493759,110.140968 
	C181.905838,109.506935 196.539856,113.164474 210.170395,120.571800 
	C212.116196,121.629227 214.252335,122.336433 217.000000,123.502678 
	C217.000000,114.838776 217.000000,107.039047 217.000000,99.239311 
	C217.000000,70.740868 217.005157,42.242428 216.996002,13.743985 
	C216.993958,7.394672 216.154068,5.953298 210.029678,5.174578 
	C199.580505,3.845960 189.063782,3.052969 178.581512,1.975723 
	C177.037231,1.817018 175.526337,1.333329 174.000000,1.000000 
	C313.939178,1.000000 453.878326,1.000000 594.000000,1.000000 
	C594.000000,196.354187 594.000000,391.708435 593.658813,587.327515 
	C592.434387,560.703674 560.014526,555.688049 545.608826,566.034790 
	C529.996399,577.248291 530.584534,601.701904 537.990479,615.438965 
	C541.847961,622.594055 549.045166,625.173462 556.000000,628.000000 
	C513.979126,628.000000 471.958221,628.000000 429.661499,627.664062 
	C433.197876,627.247620 433.728821,625.115417 432.535004,622.095154 
	C431.509186,619.499878 429.993256,617.063721 429.235962,614.402954 
	C425.976807,602.951843 420.011688,594.180542 406.573914,591.633301 
	C409.896820,588.690918 412.829285,586.518127 415.240997,583.870911 
	C420.331390,578.283630 425.288818,572.559631 430.005493,566.655823 
	C431.720947,564.508545 432.068909,561.725037 427.985504,561.597046 
	C420.175446,561.352173 412.650848,561.850159 410.086975,571.362549 
	C409.925629,571.961243 409.347717,572.439148 409.005707,572.998901 
	C404.900024,579.719604 398.975739,584.422119 392.000000,589.027161 
	C392.000000,582.525818 392.000092,576.876526 391.999969,571.227234 
	C391.999786,561.920471 391.999725,561.920654 382.506256,561.999695 
	C381.840302,562.005249 380.940002,561.729248 380.551239,562.058899 
	C379.269684,563.145752 377.170258,564.439209 377.155945,565.673767 
	C376.939880,584.319275 376.911713,602.969421 377.160583,621.614197 
	C377.184540,623.407532 379.088043,626.400024 380.562317,626.706970 
	C384.152618,627.454529 388.003540,626.950500 392.000122,626.950500 
	C392.000122,619.882263 391.980499,613.568420 392.006622,607.254639 
	C392.025879,602.594360 394.090454,600.679504 398.662231,601.399292 
	C400.732605,601.725159 402.773926,602.510681 404.711426,603.355835 
	C411.470856,606.304321 413.048920,612.852600 414.789459,618.956116 
	C415.998871,623.197083 417.868866,626.354431 422.000000,628.000000 
	C363.645782,628.000000 305.291534,628.000000 246.692917,627.668823 
	C247.866104,627.087097 249.283676,626.836548 251.000839,626.533081 
	C251.000839,620.487122 250.856415,614.675659 251.099136,608.880371 
	C251.162369,607.370911 252.047836,605.140381 253.213272,604.558960 
	C259.400024,601.471924 268.058960,604.595642 270.920685,611.039062 
	C272.705475,615.057556 273.548248,619.485291 275.110809,623.617004 
	C275.605469,624.925171 276.990143,626.741272 278.087463,626.829285 
	C282.616028,627.192505 287.190674,626.981506 292.634003,626.981506 
	C288.248199,615.493530 289.215515,602.359009 274.717621,597.928894 
	C277.592987,596.168640 279.673035,595.119446 281.502045,593.737793 
	C290.778442,586.730774 291.219299,573.911316 282.843964,567.838074 
	C278.337158,564.570068 272.089752,562.948364 266.418823,562.227539 
	C259.047913,561.290649 251.455093,562.273071 243.984192,561.900330 
	C236.877899,561.545715 236.005844,562.028076 236.002335,569.121399 
	C235.994110,585.764282 236.112885,602.408386 235.921326,619.049072 
	C235.872513,623.288940 236.941162,626.353088 241.000000,628.000000 
	C233.979050,628.000000 226.958099,628.000000 219.705688,627.663208 
	C221.895554,627.095764 224.316849,626.865112 227.501266,626.561768 
	C226.774445,623.411072 226.404968,620.651733 225.500824,618.080383 
	C220.146362,602.852600 214.595428,587.693787 209.256104,572.460754 
	C205.588943,561.998413 201.225021,559.701538 190.260437,561.684204 
	C186.602402,562.345764 184.999603,563.559753 183.788055,567.058777 
	C178.399521,582.621033 172.557541,598.025574 167.042511,613.545105 
	C165.564148,617.705261 164.660797,622.069763 163.313126,627.000305 
	C168.110245,627.000305 171.434998,626.808472 174.727539,627.052124 
	C178.319046,627.317871 179.653580,625.883118 180.092789,622.339355 
	C180.897476,615.846497 187.138596,611.912292 193.578201,613.275818 
	C195.494400,613.681580 197.526001,614.103943 199.433121,613.887573 
	C205.632309,613.184265 208.109695,614.977661 210.013153,621.103394 
	C210.781601,623.576477 212.638458,625.711243 214.000000,628.000000 
	C183.645767,628.000000 153.291550,628.000000 122.643951,627.693359 
	C124.229370,625.347046 126.940521,623.619446 127.842560,621.213623 
	C131.711212,610.895630 135.051575,600.379333 138.566284,589.929260 
	C138.758026,589.359131 138.785263,588.733765 138.889099,588.134094 
	C139.593140,588.464966 140.297165,588.795776 141.001205,589.126648 
	C141.001205,600.229919 140.920395,611.334534 141.096939,622.434998 
	C141.120728,623.929871 142.098038,626.326050 143.214706,626.740845 
	C151.441559,629.796448 155.931915,626.321594 155.034195,617.972046 
	C154.910248,616.819275 155.000870,615.642822 155.000778,614.477356 
	C154.999557,599.325500 155.108139,584.171997 154.876297,569.023682 
	C154.843719,566.894592 153.520248,563.293762 152.151688,562.952637 
	C147.826935,561.874817 143.098557,561.344055 138.726181,561.978638 
	C136.514481,562.299683 134.008377,565.246399 132.910843,567.600647 
	C130.766785,572.199524 129.538010,577.222656 127.894943,582.058105 
	C125.326073,589.618225 122.727798,597.168335 120.141983,604.722717 
	C114.655701,592.646057 110.167473,580.641235 106.115196,568.490967 
	C104.252548,562.905945 102.690628,561.100464 96.741585,561.051697 
	C94.470863,561.033142 92.178719,561.920044 89.925484,561.808044 
	C83.950020,561.510925 83.023598,562.161011 83.012131,568.064270 
	C82.978477,585.380615 82.910683,602.698120 83.110390,620.012207 
	C83.136131,622.243652 84.355049,626.151001 85.547607,626.366211 
	C89.297707,627.043213 93.507828,626.968140 97.085899,625.797119 
	C98.287666,625.403931 98.487534,620.856201 98.527222,618.198120 
	C98.682541,607.795471 98.590698,597.389221 98.590698,585.751953 
	C103.276291,598.452515 107.402451,610.070740 111.920097,621.534729 
	C112.882812,623.977661 115.269402,625.859619 117.000000,628.000000 
	C96.645775,628.000000 76.291542,628.000000 55.665466,627.682861 
	C57.303913,626.876282 59.275921,626.552917 61.114372,625.869995 
	C72.420174,621.670410 77.779022,608.077026 72.064178,598.199951 
	C68.443527,591.942261 61.953838,590.746277 55.763973,588.996399 
	C50.394432,587.478516 44.920204,586.191284 39.767567,584.117920 
	C37.841671,583.342957 35.940506,580.798462 35.488602,578.740112 
	C35.236927,577.593689 37.721470,575.293884 39.434467,574.365723 
	C46.366444,570.609497 52.658520,572.533630 57.803249,579.493713 
	C58.743500,580.765747 60.161678,582.846802 61.132919,582.726562 
	C64.764282,582.276855 68.669983,581.654663 71.648994,579.784790 
	C72.538918,579.226196 70.856125,574.348206 70.106453,571.514099 
	C69.831612,570.475037 68.941483,569.535828 68.170105,568.700623 
	C59.483501,559.294861 37.136055,558.046143 27.281204,566.176819 
	C18.198061,573.670776 17.843004,591.801636 31.107830,596.483765 
	C38.370502,599.047302 45.997391,600.582458 53.248604,603.173218 
	C55.702488,604.049988 57.506859,606.744568 59.608036,608.608398 
	C57.647991,610.792236 56.097107,614.015381 53.655720,614.976501 
	C44.089287,618.742432 36.819977,615.031311 33.085625,605.228088 
	C30.607342,605.223999 28.052868,604.835266 25.665867,605.302368 
	C20.171021,606.377625 19.302742,608.388428 21.009350,613.729919 
	C23.688200,622.114502 30.622543,625.287354 38.000000,628.000000 
	C25.684919,628.000000 13.369838,628.000000 1.000000,628.000000 
	C1.000000,541.979126 1.000000,455.958221 1.354737,369.695190 
	C2.135367,373.381348 2.567801,377.308960 2.986013,381.238098 
	C4.742821,397.743500 9.670604,413.378418 16.763048,428.262512 
	C25.912054,447.462463 39.186543,463.445190 55.498459,477.154358 
	C73.756920,492.499420 94.601913,502.641235 117.366692,508.770691 
	C127.606117,511.527649 138.317856,512.720154 148.891235,513.990173 
	C158.216248,515.110352 167.661041,516.006714 177.027115,515.804565 
	C187.366974,515.581482 197.669815,513.905090 208.003220,513.032776 
	C215.462402,512.403076 216.984467,511.040802 216.989426,503.772675 
	C217.012909,469.280609 217.010605,434.788544 216.967987,400.296509 
	C216.965897,398.595184 216.498764,396.894470 216.148331,394.515686 
	C212.863266,396.252960 210.339279,397.698761 207.723160,398.952332 
	C195.101562,405.000397 181.625641,405.656036 167.995132,404.977844 
	C148.425568,404.004120 133.133774,395.718170 124.039894,377.908356 
	C116.161339,362.478668 116.067642,345.826630 117.980682,329.142609 
	C118.820061,321.822205 117.021873,319.000397 109.742271,319.000275 
	C75.583458,318.999634 41.424614,318.982452 7.265910,319.042786 
	C5.176716,319.046478 3.088612,319.666687 1.000000,320.000000 
M532.113220,77.670593 
	C549.701355,53.389240 567.289490,29.107889 585.497009,3.971418 
	C582.406982,3.551754 580.375916,3.037324 578.344360,3.035142 
	C535.180298,2.988786 492.016144,3.042202 448.852295,2.939239 
	C444.182190,2.928098 441.243774,4.728885 438.641388,8.559832 
	C420.939301,34.618755 403.003845,60.518986 385.223389,86.524879 
	C363.352844,118.513000 341.570190,150.561203 319.728027,182.568741 
	C311.122070,195.180008 302.457886,207.751587 293.000000,221.536697 
	C293.000000,218.292114 292.992493,216.537750 293.001068,214.783447 
	C293.333191,146.840210 293.670380,78.896980 293.993652,10.953690 
	C294.022278,4.940073 291.991821,2.811257 285.954742,3.057161 
	C281.525970,3.237556 277.118317,3.938008 272.148163,4.465370 
	C271.776917,7.387359 271.049805,10.444949 271.048615,13.502821 
	C270.992859,158.160843 270.999115,302.818878 271.011169,447.476929 
	C271.011292,449.132599 271.219208,450.787201 271.263031,452.444092 
	C271.486786,460.900238 271.896240,469.358246 271.844147,477.813171 
	C271.781860,487.929596 271.063873,498.045410 271.137390,508.157776 
	C271.173615,513.143494 273.913025,514.568054 278.847931,513.630249 
	C281.248108,513.174133 283.830872,512.878723 286.209167,513.263550 
	C292.376465,514.261353 292.997681,513.891235 292.998260,507.474426 
	C293.001770,469.310028 292.912445,431.145111 293.152863,392.982239 
	C293.173920,389.639496 294.644775,385.796082 296.644501,383.065735 
	C304.434479,372.429443 312.663696,362.112366 320.815826,351.744446 
	C329.298706,340.955841 337.881226,330.245636 346.613251,319.258179 
	C354.732056,336.507507 362.697388,353.222107 370.483704,370.019653 
	C384.244202,399.705444 397.869415,429.453918 411.603607,459.151917 
	C418.820770,474.757843 426.556732,490.140747 433.222687,505.976166 
	C435.828918,512.167542 439.374390,514.340637 445.555817,514.033264 
	C454.829895,513.572205 464.116882,513.006958 473.395111,513.059998 
	C503.841858,513.233887 534.286865,513.692505 564.733154,513.979553 
	C571.396912,514.042419 572.158813,512.693665 569.323547,506.694519 
	C563.458130,494.283905 557.677673,481.832733 551.744141,469.454895 
	C542.443787,450.053284 533.047241,430.697784 523.688416,411.324219 
	C514.041504,391.354126 504.394592,371.383972 494.740540,351.417328 
	C485.014130,331.300934 475.293610,311.181641 465.543732,291.076630 
	C454.492279,268.287750 443.460388,245.489105 432.279633,222.763763 
	C430.901398,219.962448 431.188263,217.931549 432.943542,215.531387 
	C445.595032,198.231949 458.219421,180.912109 470.743835,163.520523 
	C491.165680,135.162445 511.504822,106.744827 532.113220,77.670593 
M259.000000,414.500000 
	C258.666656,397.896118 258.012512,381.291412 258.053528,364.688446 
	C258.273499,275.609741 258.672241,186.531448 258.993652,97.452972 
	C259.039368,84.790932 259.127563,72.126968 258.967712,59.466778 
	C258.768555,43.694157 258.291779,27.925209 258.028748,12.153111 
	C257.967804,8.500830 256.747620,6.654223 252.732666,6.936891 
	C248.754654,7.216958 244.711182,7.285198 240.748337,6.905057 
	C233.728119,6.231633 231.985229,7.478466 232.055405,14.739588 
	C232.106415,20.016701 232.956192,25.288795 232.957916,30.563290 
	C233.009628,188.674271 233.000000,346.785248 233.000076,504.896240 
	C233.000076,506.229095 233.083313,507.568024 232.985519,508.893616 
	C232.764618,511.888580 234.060333,513.128906 237.081589,513.033081 
	C241.409012,512.895752 245.744095,512.999878 250.075897,512.999878 
	C258.481049,512.999817 258.994110,512.499207 258.996643,503.968842 
	C259.005432,474.479218 259.000000,444.989624 259.000000,414.500000 
M523.913696,607.132080 
	C524.279541,599.998413 525.286255,592.826538 524.863159,585.739990 
	C524.206116,574.733704 517.598755,567.780823 507.483826,564.005615 
	C495.797363,559.643921 483.727722,561.840149 471.789185,562.166016 
	C471.059082,562.185974 469.785919,564.183716 469.776001,565.270447 
	C469.692413,574.408508 469.998016,583.550598 469.885315,592.687805 
	C469.760742,602.785645 469.170410,612.879944 469.190979,622.974915 
	C469.193695,624.318237 471.592743,626.812134 472.883362,626.812988 
	C482.474731,626.819519 492.119843,626.847107 501.643951,625.861633 
	C512.587402,624.729309 519.925232,618.328979 523.913696,607.132080 
M329.000000,618.445435 
	C329.000031,607.127380 328.973206,595.809326 329.008789,584.491333 
	C329.035980,575.839539 329.881470,575.081970 338.271973,574.955994 
	C340.716003,574.919312 343.149109,574.329102 345.592407,574.035583 
	C351.203217,573.361511 348.596924,569.018982 348.880249,566.207031 
	C349.175873,563.273438 347.479828,561.890869 344.257599,561.941040 
	C333.940704,562.101562 323.619751,562.000183 313.300354,562.000000 
	C307.696869,561.999878 302.093384,562.000000 296.599548,562.000000 
	C294.584259,574.862366 294.693878,574.995483 306.693024,575.000000 
	C307.192352,575.000183 307.701691,575.065002 308.189453,574.989929 
	C312.876648,574.268311 314.188232,576.339050 314.094971,580.902893 
	C313.826263,594.046265 313.966400,607.198914 314.026184,620.347473 
	C314.039856,623.359070 314.125397,626.670776 318.280518,626.942200 
	C321.700806,627.165588 325.147339,626.987732 329.000000,626.987732 
	C329.000000,624.017334 329.000000,621.720520 329.000000,618.445435 
M444.072632,626.915100 
	C447.973175,626.915100 451.873749,626.915100 455.997955,626.915100 
	C455.997955,606.737061 456.064453,587.305420 455.955109,567.874756 
	C455.924561,562.449768 454.609985,562.051880 446.015778,561.907837 
	C441.339935,561.829468 440.983307,564.419556 440.988617,567.877258 
	C441.014282,584.659973 440.898041,601.443909 441.100739,618.224182 
	C441.134583,621.025818 442.493530,623.811462 444.072632,626.915100 
z"/>
<path fill="#FEC951" opacity="1.000000" stroke="none" 
	d="
M173.555832,1.000000 
	C175.526337,1.333329 177.037231,1.817018 178.581512,1.975723 
	C189.063782,3.052969 199.580505,3.845960 210.029678,5.174578 
	C216.154068,5.953298 216.993958,7.394672 216.996002,13.743985 
	C217.005157,42.242428 217.000000,70.740868 217.000000,99.239311 
	C217.000000,107.039047 217.000000,114.838776 217.000000,123.502678 
	C214.252335,122.336433 212.116196,121.629227 210.170395,120.571800 
	C196.539856,113.164474 181.905838,109.506935 166.493759,110.140968 
	C155.992462,110.572990 145.816376,112.641502 136.503098,118.578148 
	C128.348785,123.776001 124.142471,138.583664 125.409569,147.034225 
	C128.417938,167.097870 142.725204,175.911911 159.666504,181.951675 
	C176.361038,187.903442 193.209106,193.439255 210.089783,198.845367 
	C215.104187,200.451263 217.141434,202.913971 217.112762,208.388596 
	C216.903427,248.385315 217.001099,288.383636 216.999008,328.381439 
	C216.998627,335.838928 215.930069,336.606567 209.623993,332.831970 
	C185.823502,318.585785 159.518646,310.583679 133.442856,301.989349 
	C108.982384,293.927460 85.253540,284.321564 64.216042,269.062195 
	C42.994690,253.669479 27.062168,234.187317 17.970442,209.383072 
	C13.477613,197.125656 10.442332,184.572952 9.999561,171.477036 
	C9.629659,160.536377 8.298717,149.507721 9.197745,138.667664 
	C11.707881,108.401672 21.237499,80.632156 40.711372,56.688332 
	C53.233364,41.292084 68.445854,29.347136 86.056870,20.579567 
	C102.737968,12.274954 120.311989,6.296447 138.925476,4.038064 
	C147.757980,2.966409 156.660629,2.472611 165.765747,1.358513 
	C168.370560,1.000000 170.741104,1.000000 173.555832,1.000000 
z"/>
<path fill="#FEC950" opacity="1.000000" stroke="none" 
	d="
M1.000000,320.468658 
	C3.088612,319.666687 5.176716,319.046478 7.265910,319.042786 
	C41.424614,318.982452 75.583458,318.999634 109.742271,319.000275 
	C117.021873,319.000397 118.820061,321.822205 117.980682,329.142609 
	C116.067642,345.826630 116.161339,362.478668 124.039894,377.908356 
	C133.133774,395.718170 148.425568,404.004120 167.995132,404.977844 
	C181.625641,405.656036 195.101562,405.000397 207.723160,398.952332 
	C210.339279,397.698761 212.863266,396.252960 216.148331,394.515686 
	C216.498764,396.894470 216.965897,398.595184 216.967987,400.296509 
	C217.010605,434.788544 217.012909,469.280609 216.989426,503.772675 
	C216.984467,511.040802 215.462402,512.403076 208.003220,513.032776 
	C197.669815,513.905090 187.366974,515.581482 177.027115,515.804565 
	C167.661041,516.006714 158.216248,515.110352 148.891235,513.990173 
	C138.317856,512.720154 127.606117,511.527649 117.366692,508.770691 
	C94.601913,502.641235 73.756920,492.499420 55.498459,477.154358 
	C39.186543,463.445190 25.912054,447.462463 16.763048,428.262512 
	C9.670604,413.378418 4.742821,397.743500 2.986013,381.238098 
	C2.567801,377.308960 2.135367,373.381348 1.354737,369.226501 
	C1.000000,352.979095 1.000000,336.958221 1.000000,320.468658 
z"/>
<path fill="#71DBFA" opacity="1.000000" stroke="none" 
	d="
M117.416664,628.000000 
	C115.269402,625.859619 112.882812,623.977661 111.920097,621.534729 
	C107.402451,610.070740 103.276291,598.452515 98.590698,585.751953 
	C98.590698,597.389221 98.682541,607.795471 98.527222,618.198120 
	C98.487534,620.856201 98.287666,625.403931 97.085899,625.797119 
	C93.507828,626.968140 89.297707,627.043213 85.547607,626.366211 
	C84.355049,626.151001 83.136131,622.243652 83.110390,620.012207 
	C82.910683,602.698120 82.978477,585.380615 83.012131,568.064270 
	C83.023598,562.161011 83.950020,561.510925 89.925484,561.808044 
	C92.178719,561.920044 94.470863,561.033142 96.741585,561.051697 
	C102.690628,561.100464 104.252548,562.905945 106.115196,568.490967 
	C110.167473,580.641235 114.655701,592.646057 120.141983,604.722717 
	C122.727798,597.168335 125.326073,589.618225 127.894943,582.058105 
	C129.538010,577.222656 130.766785,572.199524 132.910843,567.600647 
	C134.008377,565.246399 136.514481,562.299683 138.726181,561.978638 
	C143.098557,561.344055 147.826935,561.874817 152.151688,562.952637 
	C153.520248,563.293762 154.843719,566.894592 154.876297,569.023682 
	C155.108139,584.171997 154.999557,599.325500 155.000778,614.477356 
	C155.000870,615.642822 154.910248,616.819275 155.034195,617.972046 
	C155.931915,626.321594 151.441559,629.796448 143.214706,626.740845 
	C142.098038,626.326050 141.120728,623.929871 141.096939,622.434998 
	C140.920395,611.334534 141.001205,600.229919 141.001205,589.126648 
	C140.297165,588.795776 139.593140,588.464966 138.889099,588.134094 
	C138.785263,588.733765 138.758026,589.359131 138.566284,589.929260 
	C135.051575,600.379333 131.711212,610.895630 127.842560,621.213623 
	C126.940521,623.619446 124.229370,625.347046 122.175293,627.693359 
	C120.611107,628.000000 119.222221,628.000000 117.416664,628.000000 
z"/>
<path fill="#70DBFA" opacity="1.000000" stroke="none" 
	d="
M241.416656,628.000000 
	C236.941162,626.353088 235.872513,623.288940 235.921326,619.049072 
	C236.112885,602.408386 235.994110,585.764282 236.002335,569.121399 
	C236.005844,562.028076 236.877899,561.545715 243.984192,561.900330 
	C251.455093,562.273071 259.047913,561.290649 266.418823,562.227539 
	C272.089752,562.948364 278.337158,564.570068 282.843964,567.838074 
	C291.219299,573.911316 290.778442,586.730774 281.502045,593.737793 
	C279.673035,595.119446 277.592987,596.168640 274.717621,597.928894 
	C289.215515,602.359009 288.248199,615.493530 292.634003,626.981506 
	C287.190674,626.981506 282.616028,627.192505 278.087463,626.829285 
	C276.990143,626.741272 275.605469,624.925171 275.110809,623.617004 
	C273.548248,619.485291 272.705475,615.057556 270.920685,611.039062 
	C268.058960,604.595642 259.400024,601.471924 253.213272,604.558960 
	C252.047836,605.140381 251.162369,607.370911 251.099136,608.880371 
	C250.856415,614.675659 251.000839,620.487122 251.000839,626.533081 
	C249.283676,626.836548 247.866104,627.087097 246.224258,627.668823 
	C244.611115,628.000000 243.222214,628.000000 241.416656,628.000000 
M272.075867,577.582520 
	C267.978668,573.555725 262.807281,572.980286 257.437042,572.994507 
	C250.008575,573.014221 250.039917,572.999878 249.992004,580.568665 
	C249.905945,594.168640 248.620636,593.341919 263.788574,592.865601 
	C269.880463,592.674255 277.303131,586.330933 272.075867,577.582520 
z"/>
<path fill="#70DAFA" opacity="1.000000" stroke="none" 
	d="
M38.467606,628.000000 
	C30.622543,625.287354 23.688200,622.114502 21.009350,613.729919 
	C19.302742,608.388428 20.171021,606.377625 25.665867,605.302368 
	C28.052868,604.835266 30.607342,605.223999 33.085625,605.228088 
	C36.819977,615.031311 44.089287,618.742432 53.655720,614.976501 
	C56.097107,614.015381 57.647991,610.792236 59.608036,608.608398 
	C57.506859,606.744568 55.702488,604.049988 53.248604,603.173218 
	C45.997391,600.582458 38.370502,599.047302 31.107830,596.483765 
	C17.843004,591.801636 18.198061,573.670776 27.281204,566.176819 
	C37.136055,558.046143 59.483501,559.294861 68.170105,568.700623 
	C68.941483,569.535828 69.831612,570.475037 70.106453,571.514099 
	C70.856125,574.348206 72.538918,579.226196 71.648994,579.784790 
	C68.669983,581.654663 64.764282,582.276855 61.132919,582.726562 
	C60.161678,582.846802 58.743500,580.765747 57.803249,579.493713 
	C52.658520,572.533630 46.366444,570.609497 39.434467,574.365723 
	C37.721470,575.293884 35.236927,577.593689 35.488602,578.740112 
	C35.940506,580.798462 37.841671,583.342957 39.767567,584.117920 
	C44.920204,586.191284 50.394432,587.478516 55.763973,588.996399 
	C61.953838,590.746277 68.443527,591.942261 72.064178,598.199951 
	C77.779022,608.077026 72.420174,621.670410 61.114372,625.869995 
	C59.275921,626.552917 57.303913,626.876282 55.196808,627.682861 
	C49.645069,628.000000 44.290142,628.000000 38.467606,628.000000 
z"/>
<path fill="#FDC951" opacity="1.000000" stroke="none" 
	d="
M556.466125,628.000000 
	C549.045166,625.173462 541.847961,622.594055 537.990479,615.438965 
	C530.584534,601.701904 529.996399,577.248291 545.608826,566.034790 
	C560.014526,555.688049 592.434387,560.703674 593.658813,587.796143 
	C594.000000,590.370544 594.000000,592.741150 593.646851,595.781433 
	C592.980225,599.708801 592.952454,603.024780 592.302124,606.213745 
	C589.899048,617.995789 581.872681,624.423462 571.000000,628.000000 
	C566.310730,628.000000 561.621521,628.000000 556.466125,628.000000 
M548.001587,600.131897 
	C548.472229,602.373962 548.735901,604.684692 549.453125,606.844849 
	C551.422180,612.775269 555.850830,615.890747 562.103271,616.012695 
	C570.133850,616.169312 575.062256,614.018799 576.620667,608.256775 
	C578.846191,600.028809 580.593933,591.669739 577.183044,583.084656 
	C574.171814,575.505493 570.508789,573.300415 559.738098,574.000793 
	C554.834656,574.319641 549.979126,579.015686 549.120056,584.902954 
	C548.430603,589.627869 548.350464,594.441711 548.001587,600.131897 
z"/>
<path fill="#FEC951" opacity="1.000000" stroke="none" 
	d="
M422.437500,628.000000 
	C417.868866,626.354431 415.998871,623.197083 414.789459,618.956116 
	C413.048920,612.852600 411.470856,606.304321 404.711426,603.355835 
	C402.773926,602.510681 400.732605,601.725159 398.662231,601.399292 
	C394.090454,600.679504 392.025879,602.594360 392.006622,607.254639 
	C391.980499,613.568420 392.000122,619.882263 392.000122,626.950500 
	C388.003540,626.950500 384.152618,627.454529 380.562317,626.706970 
	C379.088043,626.400024 377.184540,623.407532 377.160583,621.614197 
	C376.911713,602.969421 376.939880,584.319275 377.155945,565.673767 
	C377.170258,564.439209 379.269684,563.145752 380.551239,562.058899 
	C380.940002,561.729248 381.840302,562.005249 382.506256,561.999695 
	C391.999725,561.920654 391.999786,561.920471 391.999969,571.227234 
	C392.000092,576.876526 392.000000,582.525818 392.000000,589.027161 
	C398.975739,584.422119 404.900024,579.719604 409.005707,572.998901 
	C409.347717,572.439148 409.925629,571.961243 410.086975,571.362549 
	C412.650848,561.850159 420.175446,561.352173 427.985504,561.597046 
	C432.068909,561.725037 431.720947,564.508545 430.005493,566.655823 
	C425.288818,572.559631 420.331390,578.283630 415.240997,583.870911 
	C412.829285,586.518127 409.896820,588.690918 406.573914,591.633301 
	C420.011688,594.180542 425.976807,602.951843 429.235962,614.402954 
	C429.993256,617.063721 431.509186,619.499878 432.535004,622.095154 
	C433.728821,625.115417 433.197876,627.247620 429.192871,627.664062 
	C426.958344,628.000000 424.916656,628.000000 422.437500,628.000000 
z"/>
<path fill="#70DBFA" opacity="1.000000" stroke="none" 
	d="
M214.416656,628.000000 
	C212.638458,625.711243 210.781601,623.576477 210.013153,621.103394 
	C208.109695,614.977661 205.632309,613.184265 199.433121,613.887573 
	C197.526001,614.103943 195.494400,613.681580 193.578201,613.275818 
	C187.138596,611.912292 180.897476,615.846497 180.092789,622.339355 
	C179.653580,625.883118 178.319046,627.317871 174.727539,627.052124 
	C171.434998,626.808472 168.110245,627.000305 163.313126,627.000305 
	C164.660797,622.069763 165.564148,617.705261 167.042511,613.545105 
	C172.557541,598.025574 178.399521,582.621033 183.788055,567.058777 
	C184.999603,563.559753 186.602402,562.345764 190.260437,561.684204 
	C201.225021,559.701538 205.588943,561.998413 209.256104,572.460754 
	C214.595428,587.693787 220.146362,602.852600 225.500824,618.080383 
	C226.404968,620.651733 226.774445,623.411072 227.501266,626.561768 
	C224.316849,626.865112 221.895554,627.095764 219.237122,627.663208 
	C217.611115,628.000000 216.222214,628.000000 214.416656,628.000000 
M192.837662,579.356750 
	C190.224243,587.109802 187.610825,594.862793 185.035217,602.503601 
	C185.828705,603.113953 186.198441,603.640564 186.606232,603.671875 
	C188.907745,603.848755 191.218216,603.986023 193.525986,603.991882 
	C205.137985,604.021240 205.220139,603.980957 201.954117,593.043884 
	C200.134399,586.950012 197.987717,580.953857 195.495789,573.425415 
	C194.214615,576.105469 193.617630,577.354248 192.837662,579.356750 
z"/>
<path fill="#FFFFFF" opacity="1.000000" stroke="none" 
	d="
M571.468750,628.000000 
	C581.872681,624.423462 589.899048,617.995789 592.302124,606.213745 
	C592.952454,603.024780 592.980225,599.708801 593.646851,596.225586 
	C594.000000,606.581055 594.000000,617.162109 594.000000,628.000000 
	C586.647827,628.000000 579.292603,628.000000 571.468750,628.000000 
z"/>
<path fill="#72DDFB" opacity="1.000000" stroke="none" 
	d="
M531.996033,78.011459 
	C511.504822,106.744827 491.165680,135.162445 470.743835,163.520523 
	C458.219421,180.912109 445.595032,198.231949 432.943542,215.531387 
	C431.188263,217.931549 430.901398,219.962448 432.279633,222.763763 
	C443.460388,245.489105 454.492279,268.287750 465.543732,291.076630 
	C475.293610,311.181641 485.014130,331.300934 494.740540,351.417328 
	C504.394592,371.383972 514.041504,391.354126 523.688416,411.324219 
	C533.047241,430.697784 542.443787,450.053284 551.744141,469.454895 
	C557.677673,481.832733 563.458130,494.283905 569.323547,506.694519 
	C572.158813,512.693665 571.396912,514.042419 564.733154,513.979553 
	C534.286865,513.692505 503.841858,513.233887 473.395111,513.059998 
	C464.116882,513.006958 454.829895,513.572205 445.555817,514.033264 
	C439.374390,514.340637 435.828918,512.167542 433.222687,505.976166 
	C426.556732,490.140747 418.820770,474.757843 411.603607,459.151917 
	C397.869415,429.453918 384.244202,399.705444 370.483704,370.019653 
	C362.697388,353.222107 354.732056,336.507507 346.613251,319.258179 
	C337.881226,330.245636 329.298706,340.955841 320.815826,351.744446 
	C312.663696,362.112366 304.434479,372.429443 296.644501,383.065735 
	C294.644775,385.796082 293.173920,389.639496 293.152863,392.982239 
	C292.912445,431.145111 293.001770,469.310028 292.998260,507.474426 
	C292.997681,513.891235 292.376465,514.261353 286.209167,513.263550 
	C283.830872,512.878723 281.248108,513.174133 278.847931,513.630249 
	C273.913025,514.568054 271.173615,513.143494 271.137390,508.157776 
	C271.063873,498.045410 271.781860,487.929596 271.844147,477.813171 
	C271.896240,469.358246 271.486786,460.900238 271.263031,452.444092 
	C271.219208,450.787201 271.011292,449.132599 271.011169,447.476929 
	C270.999115,302.818878 270.992859,158.160843 271.048615,13.502821 
	C271.049805,10.444949 271.776917,7.387359 272.148163,4.465370 
	C277.118317,3.938008 281.525970,3.237556 285.954742,3.057161 
	C291.991821,2.811257 294.022278,4.940073 293.993652,10.953690 
	C293.670380,78.896980 293.333191,146.840210 293.001068,214.783447 
	C292.992493,216.537750 293.000000,218.292114 293.000000,221.536697 
	C302.457886,207.751587 311.122070,195.180008 319.728027,182.568741 
	C341.570190,150.561203 363.352844,118.513000 385.223389,86.524879 
	C403.003845,60.518986 420.939301,34.618755 438.641388,8.559832 
	C441.243774,4.728885 444.182190,2.928098 448.852295,2.939239 
	C492.016144,3.042202 535.180298,2.988786 578.344360,3.035142 
	C580.375916,3.037324 582.406982,3.551754 585.497009,3.971418 
	C567.289490,29.107889 549.701355,53.389240 531.996033,78.011459 
z"/>
<path fill="#FEC952" opacity="1.000000" stroke="none" 
	d="
M259.000000,415.000000 
	C259.000000,444.989624 259.005432,474.479218 258.996643,503.968842 
	C258.994110,512.499207 258.481049,512.999817 250.075897,512.999878 
	C245.744095,512.999878 241.409012,512.895752 237.081589,513.033081 
	C234.060333,513.128906 232.764618,511.888580 232.985519,508.893616 
	C233.083313,507.568024 233.000076,506.229095 233.000076,504.896240 
	C233.000000,346.785248 233.009628,188.674271 232.957916,30.563290 
	C232.956192,25.288795 232.106415,20.016701 232.055405,14.739588 
	C231.985229,7.478466 233.728119,6.231633 240.748337,6.905057 
	C244.711182,7.285198 248.754654,7.216958 252.732666,6.936891 
	C256.747620,6.654223 257.967804,8.500830 258.028748,12.153111 
	C258.291779,27.925209 258.768555,43.694157 258.967712,59.466778 
	C259.127563,72.126968 259.039368,84.790932 258.993652,97.452972 
	C258.672241,186.531448 258.273499,275.609741 258.053528,364.688446 
	C258.012512,381.291412 258.666656,397.896118 259.000000,415.000000 
z"/>
<path fill="#FDC951" opacity="1.000000" stroke="none" 
	d="
M523.750488,607.503113 
	C519.925232,618.328979 512.587402,624.729309 501.643951,625.861633 
	C492.119843,626.847107 482.474731,626.819519 472.883362,626.812988 
	C471.592743,626.812134 469.193695,624.318237 469.190979,622.974915 
	C469.170410,612.879944 469.760742,602.785645 469.885315,592.687805 
	C469.998016,583.550598 469.692413,574.408508 469.776001,565.270447 
	C469.785919,564.183716 471.059082,562.185974 471.789185,562.166016 
	C483.727722,561.840149 495.797363,559.643921 507.483826,564.005615 
	C517.598755,567.780823 524.206116,574.733704 524.863159,585.739990 
	C525.286255,592.826538 524.279541,599.998413 523.750488,607.503113 
M493.135742,615.891235 
	C494.570496,615.561646 495.998657,615.199219 497.441132,614.907837 
	C505.091644,613.362976 509.273895,608.764160 510.043854,601.076721 
	C510.157135,599.945496 510.391907,598.820251 510.649567,597.710693 
	C513.242798,586.541992 507.270477,576.164062 496.922577,574.226868 
	C494.341919,573.743835 491.607849,574.148804 488.966492,573.904968 
	C485.303497,573.566895 483.885468,575.016724 483.946472,578.733887 
	C484.104645,588.375671 483.985016,598.021667 484.003632,607.666016 
	C484.017853,615.031067 484.974701,615.972778 493.135742,615.891235 
z"/>
<path fill="#71DBFA" opacity="1.000000" stroke="none" 
	d="
M329.000000,618.934570 
	C329.000000,621.720520 329.000000,624.017334 329.000000,626.987732 
	C325.147339,626.987732 321.700806,627.165588 318.280518,626.942200 
	C314.125397,626.670776 314.039856,623.359070 314.026184,620.347473 
	C313.966400,607.198914 313.826263,594.046265 314.094971,580.902893 
	C314.188232,576.339050 312.876648,574.268311 308.189453,574.989929 
	C307.701691,575.065002 307.192352,575.000183 306.693024,575.000000 
	C294.693878,574.995483 294.584259,574.862366 296.599548,562.000000 
	C302.093384,562.000000 307.696869,561.999878 313.300354,562.000000 
	C323.619751,562.000183 333.940704,562.101562 344.257599,561.941040 
	C347.479828,561.890869 349.175873,563.273438 348.880249,566.207031 
	C348.596924,569.018982 351.203217,573.361511 345.592407,574.035583 
	C343.149109,574.329102 340.716003,574.919312 338.271973,574.955994 
	C329.881470,575.081970 329.035980,575.839539 329.008789,584.491333 
	C328.973206,595.809326 329.000031,607.127380 329.000000,618.934570 
z"/>
<path fill="#FDCA52" opacity="1.000000" stroke="none" 
	d="
M443.656403,626.759766 
	C442.493530,623.811462 441.134583,621.025818 441.100739,618.224182 
	C440.898041,601.443909 441.014282,584.659973 440.988617,567.877258 
	C440.983307,564.419556 441.339935,561.829468 446.015778,561.907837 
	C454.609985,562.051880 455.924561,562.449768 455.955109,567.874756 
	C456.064453,587.305420 455.997955,606.737061 455.997955,626.915100 
	C451.873749,626.915100 447.973175,626.915100 443.656403,626.759766 
z"/>
<path fill="#FCFEFE" opacity="1.000000" stroke="none" 
	d="
M272.360901,577.855408 
	C277.303131,586.330933 269.880463,592.674255 263.788574,592.865601 
	C248.620636,593.341919 249.905945,594.168640 249.992004,580.568665 
	C250.039917,572.999878 250.008575,573.014221 257.437042,572.994507 
	C262.807281,572.980286 267.978668,573.555725 272.360901,577.855408 
z"/>
<path fill="#FEFEFD" opacity="1.000000" stroke="none" 
	d="
M548.000793,599.673950 
	C548.350464,594.441711 548.430603,589.627869 549.120056,584.902954 
	C549.979126,579.015686 554.834656,574.319641 559.738098,574.000793 
	C570.508789,573.300415 574.171814,575.505493 577.183044,583.084656 
	C580.593933,591.669739 578.846191,600.028809 576.620667,608.256775 
	C575.062256,614.018799 570.133850,616.169312 562.103271,616.012695 
	C555.850830,615.890747 551.422180,612.775269 549.453125,606.844849 
	C548.735901,604.684692 548.472229,602.373962 548.000793,599.673950 
z"/>
<path fill="#F9FDFE" opacity="1.000000" stroke="none" 
	d="
M192.929153,578.979858 
	C193.617630,577.354248 194.214615,576.105469 195.495789,573.425415 
	C197.987717,580.953857 200.134399,586.950012 201.954117,593.043884 
	C205.220139,603.980957 205.137985,604.021240 193.525986,603.991882 
	C191.218216,603.986023 188.907745,603.848755 186.606232,603.671875 
	C186.198441,603.640564 185.828705,603.113953 185.035217,602.503601 
	C187.610825,594.862793 190.224243,587.109802 192.929153,578.979858 
z"/>
<path fill="#FEFEFD" opacity="1.000000" stroke="none" 
	d="
M492.708099,615.934814 
	C484.974701,615.972778 484.017853,615.031067 484.003632,607.666016 
	C483.985016,598.021667 484.104645,588.375671 483.946472,578.733887 
	C483.885468,575.016724 485.303497,573.566895 488.966492,573.904968 
	C491.607849,574.148804 494.341919,573.743835 496.922577,574.226868 
	C507.270477,576.164062 513.242798,586.541992 510.649567,597.710693 
	C510.391907,598.820251 510.157135,599.945496 510.043854,601.076721 
	C509.273895,608.764160 505.091644,613.362976 497.441132,614.907837 
	C495.998657,615.199219 494.570496,615.561646 492.708099,615.934814 
z"/>
</svg>
